<?xml version="1.0" encoding="utf-8"?>
<!-- Generator: Adobe Illustrator 23.0.3, SVG Export Plug-In . SVG Version: 6.00 Build 0)  -->
<svg version="1.1" id="Layer_1" xmlns="http://www.w3.org/2000/svg" xmlns:xlink="http://www.w3.org/1999/xlink" x="0px" y="0px"
	 viewBox="0 0 180.7 180.7" style="enable-background:new 0 0 180.7 180.7;" xml:space="preserve">
<style type="text/css">
	.st0{fill:#CADBFE;}
	.st1{fill:#3B3638;}
	.st2{fill:#E60201;}
	.st3{fill:#7C0405;}
	.st4{fill:#433F26;}
	.st5{fill:#2A0034;}
	.st6{fill:#1F2600;}
	.st7{fill:#000F34;}
	.st8{fill:#261600;}
	.st9{fill:#262600;}
	.st10{fill:#002625;}
	.st11{fill:#253930;}
	.st12{fill:#051E1E;}
	.st13{fill:#2E001E;}
	.st14{fill:#230904;}
	.st15{fill:#00261A;}
	.st16{fill:#002026;}
	.st17{fill:#001D26;}
	.st18{fill:#1F0040;}
	.st19{fill:#3C1B2B;}
	.st20{fill:#260600;}
	.st21{fill:#002620;}
	.st22{fill:#28333B;}
	.st23{fill:#261300;}
	.st24{fill:#261C00;}
	.st25{fill:#3C2346;}
	.st26{fill:#072600;}
	.st27{fill:#19273C;}
	.st28{fill:#FF7C00;}
	.st29{fill:#FBB500;}
	.st30{fill:#D996FB;}
	.st31{fill:#83EC09;}
	.st32{fill:#7CB1FF;}
	.st33{fill:#D291FF;}
	.st34{fill:#FF408C;}
	.st35{fill:#FF4A19;}
	.st36{fill:#FFFFFF;}
	.st37{fill:#AED3E9;}
	.st38{fill:#3CF2A6;}
	.st39{fill:#00DBFF;}
	.st40{fill:#00C8FF;}
	.st41{fill:#DCDCDC;}
	.st42{fill:#E272F7;}
	.st43{fill:#00EAE4;}
	.st44{fill:#00E778;}
	.st45{fill:#FF2BC2;}
	.st46{fill:#FFE3B4;}
	.st47{fill:#E5ED00;}
	.st48{fill:#C1E800;}
	.st49{fill:#FF9100;}
	.st50{fill:#FCF400;}
	.st51{fill:#1969FF;}
	.st52{fill:#152600;}
	.st53{fill:#2B0028;}
	.st54{fill:#87EC00;}
	.st55{fill:#FF5FF8;}
	.st56{fill:#B3A3A8;}
	.st57{fill:#FEFEFE;}
	.st58{fill:#00E4BB;}
</style>
<path class="st13" d="M154.1,180.7H26.6C11.9,180.7,0,168.8,0,154.1V26.6C0,11.9,11.9,0,26.6,0h127.6c14.7,0,26.6,11.9,26.6,26.6
	v127.6C180.7,168.8,168.8,180.7,154.1,180.7z"/>
<g>
	<g>
		<path class="st45" d="M62.9,86.8l17-27.2h11L68.5,94.8l23,35.8H80.4l-17.5-27.7l-17.6,27.7H34.2l23-35.8L34.8,59.5h11L62.9,86.8z"
			/>
		<path class="st45" d="M97.5,103.8c0-8.1,1.9-14.6,5.8-19.6c3.8-4.9,8.9-7.4,15.1-7.4c6.2,0,11.1,2.1,14.7,6.3V55.6h9v75h-8.3
			l-0.4-5.7c-3.6,4.4-8.6,6.6-15.1,6.6c-6.1,0-11.1-2.5-15-7.5c-3.9-5-5.8-11.6-5.8-19.6V103.8z M106.5,104.8c0,6,1.2,10.7,3.7,14.1
			c2.5,3.4,5.9,5.1,10.3,5.1c5.7,0,9.9-2.6,12.5-7.7V92c-2.7-5-6.9-7.5-12.5-7.5c-4.4,0-7.9,1.7-10.4,5.1
			C107.8,93,106.5,98.1,106.5,104.8z"/>
	</g>
</g>
</svg>
